<svg width="1440" height="4566" viewBox="0 0 1440 4566" fill="none" xmlns="http://www.w3.org/2000/svg">
<g filter="url(#filter0_f_246_433)">
<path d="M1520.25 3409.03C1510.82 3472.58 1492.46 3530.59 1473.62 3588.2C1455.13 3644.75 1435.54 3717.67 1400.51 3759.63C1383.32 3780.22 1352.56 3790.23 1331.37 3804.04C1292.69 3829.25 1258.67 3852.81 1226.32 3889.87C1140.79 3987.87 1183.88 4194.26 1102.43 4294.88C1065.04 4341.07 1010.33 4350.02 959.099 4363.1C902.203 4377.62 839.017 4343.83 780.351 4348.17C695.415 4354.46 609.862 4367.43 522.499 4355.21C493.313 4351.13 461.305 4346.19 433.864 4354.01" stroke="#CFAA5B" stroke-opacity="0.14" stroke-width="170" stroke-linecap="round"/>
</g>
<g filter="url(#filter1_f_246_433)">
<path d="M342.953 1650.57C315.565 1587.44 300.013 1521.53 285.148 1455.57C270.558 1390.82 247.632 1310.93 257.463 1244.82C262.289 1212.36 286.353 1177.58 298.952 1147.63C321.951 1092.94 341.386 1043.64 351.433 984.054C378.001 826.475 217.585 683.957 238.685 527.561C248.37 455.77 296.262 401.595 338.406 346.792C385.209 285.928 465.881 261.64 520.252 208.107C598.97 130.603 674.443 46.7769 766.15 -16.7352C796.788 -37.9536 830.656 -60.8165 852.758 -90.8821" stroke="#CFAA5B" stroke-opacity="0.14" stroke-width="170" stroke-linecap="round"/>
</g>
<g filter="url(#filter2_f_246_433)">
<path d="M1133.25 956C1175.27 1011.39 1206.32 1072.18 1236.71 1133.18C1266.53 1193.06 1308.18 1265.82 1314.32 1332.58C1317.34 1365.35 1302 1404.76 1296.78 1436.87C1287.25 1495.46 1279.93 1548 1284.31 1608.44C1295.87 1768.27 1487.65 1870.9 1504.31 2028.34C1511.95 2100.6 1477.83 2164.36 1449.51 2227.43C1418.05 2297.47 1344.56 2339.51 1303.91 2404.12C1245.07 2497.66 1190.92 2596.62 1115.96 2679.46C1090.92 2707.13 1063.09 2737.14 1048.55 2771.51" stroke="#CFAA5B" stroke-opacity="0.14" stroke-width="170" stroke-linecap="round"/>
</g>
<g filter="url(#filter3_f_246_433)">
<path d="M-826.321 2776.44C-738.031 2772.77 -655.511 2782.07 -573.436 2792.1C-492.874 2801.94 -389.832 2809.11 -325.869 2844.1C-294.467 2861.27 -274.792 2898.73 -251.833 2922.79C-209.924 2966.72 -171.179 3005.01 -114.402 3037.74C35.7401 3124.29 307.972 3016.56 460.884 3097.15C531.076 3134.14 554.024 3202.98 581.901 3266.26C612.861 3336.53 579.357 3427.09 596.819 3502.22C622.101 3610.99 656.596 3718.89 657.193 3835.45C657.392 3874.39 656.974 3917.21 673.021 3950.9" stroke="#CFAA5B" stroke-opacity="0.14" stroke-width="170" stroke-linecap="round"/>
</g>
<g filter="url(#filter4_f_246_433)">
<path d="M125 1906.94C169.567 1918.47 210.023 1936.62 250.187 1955.12C289.612 1973.28 340.546 1993.37 369.29 2023.51C383.401 2038.3 389.73 2063.01 398.963 2080.49C415.819 2112.39 431.619 2140.53 456.976 2168.25C524.029 2241.55 670.522 2221.35 739.525 2291.63C771.199 2323.89 776.212 2367.26 784.217 2408.19C793.108 2453.63 767.801 2500.84 769.474 2547.01C771.897 2613.84 779.016 2681.6 768.342 2749.13C764.776 2771.69 760.535 2796.4 765.4 2818.37" stroke="#CFAA5B" stroke-opacity="0.14" stroke-width="170" stroke-linecap="round"/>
</g>
<g filter="url(#filter5_f_246_433)">
<path d="M1614.65 837.816C1537.46 866.473 1457.27 892.982 1388.3 939.271C1359.98 958.279 1319.45 992.025 1298.44 1019.91C1259.42 1071.69 1252.9 1135.63 1235.5 1195.88C1202.1 1311.5 1149.26 1440.35 1049.07 1514.69C1033.66 1526.13 990.33 1549.37 973.98 1557.38C893.762 1596.72 810.071 1631.22 726.526 1662.56C536.137 1733.96 342.242 1781.49 141.244 1811.51C-67.4074 1842.67 -284.015 1871.4 -495.54 1860.94C-590.766 1856.23 -683.328 1833.2 -776.204 1813.54C-809.064 1806.58 -844.022 1804.09 -870.252 1782.31" stroke="#FDD1B8" stroke-opacity="0.38" stroke-width="179" stroke-linecap="round"/>
</g>
<g filter="url(#filter6_f_246_433)">
<path d="M2208.18 456.494C2133.64 446.629 2057.6 432.959 1982.18 445.851C1951.21 451.146 1904.1 465.588 1875.24 483.976C1821.65 518.121 1789.1 581.847 1749.34 636.066C1673.04 740.112 1575.41 847.977 1462.81 874.155C1445.49 878.182 1400.6 880.151 1383.98 880.105C1302.45 879.876 1220.17 872.783 1139.36 862.441C955.216 838.874 778.43 788.435 603.385 715.942C421.675 640.69 234.579 558.772 68.3099 438.362C-6.54317 384.154 -71.4286 312.106 -138.003 243.423C-161.558 219.123 -188.71 198.422 -200.589 162" stroke="#FDD1B8" stroke-opacity="0.38" stroke-width="193" stroke-linecap="round"/>
</g>
<g filter="url(#filter7_f_246_433)">
<path d="M1642.97 2983.51C1580.22 2930.2 1517.88 2873.22 1443.78 2835.7C1413.35 2820.29 1364.09 2801.45 1329.49 2796.76C1265.25 2788.05 1206.28 2813.63 1145.22 2827.92C1028.03 2855.33 889.809 2872.26 775.963 2821.23C758.448 2813.38 716.985 2786.95 701.996 2776.61C628.456 2725.88 557.43 2669.75 489.239 2612.21C333.838 2481.07 197.552 2335.19 73.0695 2174.55C-56.1533 2007.79 -187.148 1832.91 -281.476 1643.29C-323.941 1557.93 -349.127 1465.93 -377.4 1375.3C-387.403 1343.24 -402.326 1311.53 -396.16 1278" stroke="#FDD1B8" stroke-opacity="0.38" stroke-width="179" stroke-linecap="round"/>
</g>
<g filter="url(#filter8_f_246_433)">
<path d="M1344.48 2794.2C1265.66 2818.04 1183.99 2839.55 1112.3 2881.49C1082.86 2898.71 1040.32 2929.89 1017.63 2956.42C975.488 3005.69 965.03 3069.11 943.94 3128.18C903.468 3241.51 842.777 3366.85 738.188 3434.87C722.098 3445.33 677.415 3465.85 660.601 3472.84C578.107 3507.15 492.446 3536.42 407.126 3562.53C212.69 3622.05 16.231 3657.52 -186.237 3675.07C-396.414 3693.28 -614.382 3708.58 -824.857 3685.08C-919.611 3674.5 -1010.57 3645.81 -1102.06 3620.45C-1134.43 3611.47 -1169.16 3606.83 -1194 3583.47" stroke="#FDD1B8" stroke-opacity="0.38" stroke-width="179" stroke-linecap="round"/>
</g>
<g filter="url(#filter9_f_246_433)">
<path d="M-877.133 6151.36C-801.901 6086.18 -719.938 6024.17 -676.884 5929.84C-659.204 5891.11 -641.544 5824.25 -644.52 5771.46C-650.046 5673.43 -715.547 5560.54 -761.41 5451.96C-849.418 5243.6 -925.496 5008.34 -871.239 4858.91C-862.892 4835.92 -829.016 4786.85 -815.355 4769.65C-748.33 4685.25 -670.774 4608.6 -589.723 4537.51C-405.017 4375.49 -187.485 4254.47 60.5055 4162.62C317.939 4067.28 589.413 3974.61 899.501 3951.34C1039.1 3940.86 1196.34 3962.88 1350.09 3978.96C1404.49 3984.65 1456.63 3982.14 1519 4015" stroke="#FDD1B8" stroke-opacity="0.38" stroke-width="179" stroke-linecap="round"/>
</g>
<defs>
<filter id="filter0_f_246_433" x="318.842" y="3294.02" width="1316.42" height="1187.7" filterUnits="userSpaceOnUse" color-interpolation-filters="sRGB">
<feFlood flood-opacity="0" result="BackgroundImageFix"/>
<feBlend mode="normal" in="SourceGraphic" in2="BackgroundImageFix" result="shape"/>
<feGaussianBlur stdDeviation="15" result="effect1_foregroundBlur_246_433"/>
</filter>
<filter id="filter1_f_246_433" x="121.817" y="-205.888" width="845.947" height="1971.48" filterUnits="userSpaceOnUse" color-interpolation-filters="sRGB">
<feFlood flood-opacity="0" result="BackgroundImageFix"/>
<feBlend mode="normal" in="SourceGraphic" in2="BackgroundImageFix" result="shape"/>
<feGaussianBlur stdDeviation="15" result="effect1_foregroundBlur_246_433"/>
</filter>
<filter id="filter2_f_246_433" x="933.533" y="840.996" width="686.808" height="2045.54" filterUnits="userSpaceOnUse" color-interpolation-filters="sRGB">
<feFlood flood-opacity="0" result="BackgroundImageFix"/>
<feBlend mode="normal" in="SourceGraphic" in2="BackgroundImageFix" result="shape"/>
<feGaussianBlur stdDeviation="15" result="effect1_foregroundBlur_246_433"/>
</filter>
<filter id="filter3_f_246_433" x="-941.322" y="2660.63" width="1729.36" height="1405.29" filterUnits="userSpaceOnUse" color-interpolation-filters="sRGB">
<feFlood flood-opacity="0" result="BackgroundImageFix"/>
<feBlend mode="normal" in="SourceGraphic" in2="BackgroundImageFix" result="shape"/>
<feGaussianBlur stdDeviation="15" result="effect1_foregroundBlur_246_433"/>
</filter>
<filter id="filter4_f_246_433" x="9.97925" y="1791.92" width="891.108" height="1141.47" filterUnits="userSpaceOnUse" color-interpolation-filters="sRGB">
<feFlood flood-opacity="0" result="BackgroundImageFix"/>
<feBlend mode="normal" in="SourceGraphic" in2="BackgroundImageFix" result="shape"/>
<feGaussianBlur stdDeviation="15" result="effect1_foregroundBlur_246_433"/>
</filter>
<filter id="filter5_f_246_433" x="-989.754" y="718.291" width="2723.93" height="1264.33" filterUnits="userSpaceOnUse" color-interpolation-filters="sRGB">
<feFlood flood-opacity="0" result="BackgroundImageFix"/>
<feBlend mode="normal" in="SourceGraphic" in2="BackgroundImageFix" result="shape"/>
<feGaussianBlur stdDeviation="15" result="effect1_foregroundBlur_246_433"/>
</filter>
<filter id="filter6_f_246_433" x="-327.115" y="35.4739" width="2661.8" height="971.131" filterUnits="userSpaceOnUse" color-interpolation-filters="sRGB">
<feFlood flood-opacity="0" result="BackgroundImageFix"/>
<feBlend mode="normal" in="SourceGraphic" in2="BackgroundImageFix" result="shape"/>
<feGaussianBlur stdDeviation="15" result="effect1_foregroundBlur_246_433"/>
</filter>
<filter id="filter7_f_246_433" x="-517.106" y="1158.48" width="2279.58" height="1944.53" filterUnits="userSpaceOnUse" color-interpolation-filters="sRGB">
<feFlood flood-opacity="0" result="BackgroundImageFix"/>
<feBlend mode="normal" in="SourceGraphic" in2="BackgroundImageFix" result="shape"/>
<feGaussianBlur stdDeviation="15" result="effect1_foregroundBlur_246_433"/>
</filter>
<filter id="filter8_f_246_433" x="-1313.5" y="2674.68" width="2777.5" height="1141.86" filterUnits="userSpaceOnUse" color-interpolation-filters="sRGB">
<feFlood flood-opacity="0" result="BackgroundImageFix"/>
<feBlend mode="normal" in="SourceGraphic" in2="BackgroundImageFix" result="shape"/>
<feGaussianBlur stdDeviation="15" result="effect1_foregroundBlur_246_433"/>
</filter>
<filter id="filter9_f_246_433" x="-1008.93" y="3829.15" width="2647.45" height="2441.71" filterUnits="userSpaceOnUse" color-interpolation-filters="sRGB">
<feFlood flood-opacity="0" result="BackgroundImageFix"/>
<feBlend mode="normal" in="SourceGraphic" in2="BackgroundImageFix" result="shape"/>
<feGaussianBlur stdDeviation="15" result="effect1_foregroundBlur_246_433"/>
</filter>
</defs>
</svg>
