<svg width="100" height="100" viewBox="0 0 100 100" fill="none" xmlns="http://www.w3.org/2000/svg">
<path d="M68.6833 33.0305C68.3037 32.8342 67.9341 32.6191 67.5759 32.3859C66.5344 31.6974 65.5795 30.8861 64.7318 29.9695C62.6107 27.5426 61.8185 25.0805 61.5267 23.3566H61.5384C61.2947 21.9258 61.3954 21 61.4107 21H51.7497V58.357C51.7497 58.8586 51.7497 59.3543 51.7286 59.8441C51.7286 59.9051 51.7228 59.9613 51.7193 60.027C51.7193 60.0539 51.7193 60.082 51.7134 60.1102C51.7134 60.1172 51.7134 60.1242 51.7134 60.1313C51.6116 61.4716 51.1819 62.7664 50.4622 63.9018C49.7425 65.0371 48.7548 65.9782 47.5861 66.6422C46.368 67.3352 44.9902 67.6987 43.5888 67.6969C39.0876 67.6969 35.4396 64.0266 35.4396 59.4938C35.4396 54.9609 39.0876 51.2906 43.5888 51.2906C44.4409 51.2898 45.2877 51.4239 46.0978 51.6879L46.1095 41.8512C43.6502 41.5335 41.1517 41.7289 38.7717 42.4252C36.3916 43.1215 34.1817 44.3034 32.2814 45.8965C30.6162 47.3433 29.2163 49.0696 28.1447 50.9977C27.7368 51.7008 26.1982 54.5262 26.0118 59.1117C25.8947 61.7145 26.6763 64.4109 27.049 65.5254V65.5488C27.2833 66.2051 28.1915 68.4445 29.6716 70.3324C30.8651 71.8468 32.2752 73.1771 33.8564 74.2805V74.257L33.8798 74.2805C38.5568 77.4586 43.7423 77.25 43.7423 77.25C44.64 77.2137 47.647 77.25 51.0619 75.6316C54.8494 73.8375 57.0056 71.1645 57.0056 71.1645C58.3831 69.5673 59.4785 67.7471 60.2447 65.782C61.1189 63.484 61.4107 60.7277 61.4107 59.6262V39.8074C61.5279 39.8777 63.0888 40.9102 63.0888 40.9102C63.0888 40.9102 65.3376 42.3516 68.8462 43.2902C71.3634 43.9582 74.7548 44.0988 74.7548 44.0988V34.5082C73.5665 34.6371 71.1536 34.2621 68.6833 33.0305Z" fill="black"/>
<circle cx="50" cy="50" r="49.5" stroke="black"/>
</svg>
